<mxfile host="app.diagrams.net" modified="2020-08-12T07:08:01.357Z" agent="5.0 (Windows NT 10.0; Win64; x64) AppleWebKit/537.36 (KHTML, like Gecko) Chrome/84.0.4147.105 Safari/537.36" etag="f2gi6KRBqc6bMm1FR1Oh" version="13.5.4" type="github">
  <diagram id="pclqiT0lYzakxI-YOr0z" name="Page-1">
    <mxGraphModel dx="2489" dy="794" grid="1" gridSize="10" guides="1" tooltips="1" connect="1" arrows="1" fold="1" page="1" pageScale="1" pageWidth="827" pageHeight="1169" math="0" shadow="0">
      <root>
        <mxCell id="0" />
        <mxCell id="1" parent="0" />
        <mxCell id="fMIKsQbXh_aVyUk7N6kA-2" value="应用下载更新原理" style="swimlane;html=1;childLayout=stackLayout;startSize=20;rounded=0;shadow=0;comic=0;labelBackgroundColor=none;strokeWidth=1;fontFamily=Verdana;fontSize=12;align=center;" vertex="1" parent="1">
          <mxGeometry x="-90" y="30" width="1920" height="1060" as="geometry" />
        </mxCell>
        <mxCell id="fMIKsQbXh_aVyUk7N6kA-3" value="碰一碰应用" style="swimlane;html=1;startSize=20;" vertex="1" parent="fMIKsQbXh_aVyUk7N6kA-2">
          <mxGeometry y="20" width="380" height="1040" as="geometry" />
        </mxCell>
        <mxCell id="fMIKsQbXh_aVyUk7N6kA-4" style="edgeStyle=orthogonalEdgeStyle;rounded=0;html=1;labelBackgroundColor=none;startArrow=none;startFill=0;startSize=5;endArrow=classicThin;endFill=1;endSize=5;jettySize=auto;orthogonalLoop=1;strokeWidth=1;fontFamily=Verdana;fontSize=12" edge="1" parent="fMIKsQbXh_aVyUk7N6kA-3" source="fMIKsQbXh_aVyUk7N6kA-6" target="fMIKsQbXh_aVyUk7N6kA-5">
          <mxGeometry relative="1" as="geometry" />
        </mxCell>
        <mxCell id="fMIKsQbXh_aVyUk7N6kA-34" style="edgeStyle=orthogonalEdgeStyle;rounded=0;orthogonalLoop=1;jettySize=auto;html=1;exitX=0.5;exitY=1;exitDx=0;exitDy=0;entryX=0.5;entryY=0;entryDx=0;entryDy=0;" edge="1" parent="fMIKsQbXh_aVyUk7N6kA-3" source="fMIKsQbXh_aVyUk7N6kA-5" target="fMIKsQbXh_aVyUk7N6kA-7">
          <mxGeometry relative="1" as="geometry" />
        </mxCell>
        <mxCell id="fMIKsQbXh_aVyUk7N6kA-5" value="靠近智能家居设备NFC标签" style="rounded=1;whiteSpace=wrap;html=1;shadow=0;comic=0;labelBackgroundColor=none;strokeWidth=1;fontFamily=Verdana;fontSize=12;align=center;arcSize=50;" vertex="1" parent="fMIKsQbXh_aVyUk7N6kA-3">
          <mxGeometry x="70" y="111" width="100" height="30" as="geometry" />
        </mxCell>
        <mxCell id="fMIKsQbXh_aVyUk7N6kA-6" value="&lt;font color=&quot;#ffffff&quot;&gt;开始&lt;/font&gt;" style="ellipse;whiteSpace=wrap;html=1;rounded=0;shadow=0;comic=0;labelBackgroundColor=none;strokeWidth=1;fillColor=#000000;fontFamily=Verdana;fontSize=12;align=center;" vertex="1" parent="fMIKsQbXh_aVyUk7N6kA-3">
          <mxGeometry x="100" y="41" width="40" height="40" as="geometry" />
        </mxCell>
        <mxCell id="fMIKsQbXh_aVyUk7N6kA-7" value="获取设备NFC标签信息" style="rounded=1;whiteSpace=wrap;html=1;shadow=0;comic=0;labelBackgroundColor=none;strokeWidth=1;fontFamily=Verdana;fontSize=12;align=center;arcSize=50;" vertex="1" parent="fMIKsQbXh_aVyUk7N6kA-3">
          <mxGeometry x="70" y="181" width="100" height="30" as="geometry" />
        </mxCell>
        <mxCell id="fMIKsQbXh_aVyUk7N6kA-66" style="edgeStyle=orthogonalEdgeStyle;rounded=0;orthogonalLoop=1;jettySize=auto;html=1;exitX=0.5;exitY=1;exitDx=0;exitDy=0;entryX=0.5;entryY=0;entryDx=0;entryDy=0;" edge="1" parent="fMIKsQbXh_aVyUk7N6kA-3" source="fMIKsQbXh_aVyUk7N6kA-9" target="fMIKsQbXh_aVyUk7N6kA-23">
          <mxGeometry relative="1" as="geometry" />
        </mxCell>
        <mxCell id="fMIKsQbXh_aVyUk7N6kA-9" value="缓存读取智能家居设备FA应用信息" style="rounded=1;whiteSpace=wrap;html=1;shadow=0;comic=0;labelBackgroundColor=none;strokeWidth=1;fontFamily=Verdana;fontSize=12;align=center;arcSize=50;" vertex="1" parent="fMIKsQbXh_aVyUk7N6kA-3">
          <mxGeometry x="70" y="250" width="100" height="30" as="geometry" />
        </mxCell>
        <mxCell id="fMIKsQbXh_aVyUk7N6kA-60" style="edgeStyle=orthogonalEdgeStyle;rounded=0;orthogonalLoop=1;jettySize=auto;html=1;exitX=0;exitY=0.5;exitDx=0;exitDy=0;entryX=1;entryY=0.5;entryDx=0;entryDy=0;" edge="1" parent="fMIKsQbXh_aVyUk7N6kA-3" source="fMIKsQbXh_aVyUk7N6kA-58" target="fMIKsQbXh_aVyUk7N6kA-9">
          <mxGeometry relative="1" as="geometry" />
        </mxCell>
        <mxCell id="fMIKsQbXh_aVyUk7N6kA-58" value="解析标签信息" style="rounded=1;whiteSpace=wrap;html=1;shadow=0;comic=0;labelBackgroundColor=none;strokeWidth=1;fontFamily=Verdana;fontSize=12;align=center;arcSize=50;" vertex="1" parent="fMIKsQbXh_aVyUk7N6kA-3">
          <mxGeometry x="220" y="250" width="100" height="30" as="geometry" />
        </mxCell>
        <mxCell id="fMIKsQbXh_aVyUk7N6kA-33" value="NO" style="edgeStyle=orthogonalEdgeStyle;rounded=0;orthogonalLoop=1;jettySize=auto;html=1;exitX=1;exitY=0.5;exitDx=0;exitDy=0;" edge="1" parent="fMIKsQbXh_aVyUk7N6kA-3" source="fMIKsQbXh_aVyUk7N6kA-23" target="fMIKsQbXh_aVyUk7N6kA-32">
          <mxGeometry x="-0.3333" relative="1" as="geometry">
            <Array as="points">
              <mxPoint x="180" y="390" />
              <mxPoint x="180" y="390" />
            </Array>
            <mxPoint as="offset" />
          </mxGeometry>
        </mxCell>
        <mxCell id="fMIKsQbXh_aVyUk7N6kA-68" style="edgeStyle=orthogonalEdgeStyle;rounded=0;orthogonalLoop=1;jettySize=auto;html=1;exitX=0.5;exitY=1;exitDx=0;exitDy=0;entryX=0.5;entryY=0;entryDx=0;entryDy=0;" edge="1" parent="fMIKsQbXh_aVyUk7N6kA-3" source="fMIKsQbXh_aVyUk7N6kA-23" target="fMIKsQbXh_aVyUk7N6kA-57">
          <mxGeometry relative="1" as="geometry" />
        </mxCell>
        <mxCell id="fMIKsQbXh_aVyUk7N6kA-69" value="YES" style="edgeLabel;html=1;align=center;verticalAlign=middle;resizable=0;points=[];" vertex="1" connectable="0" parent="fMIKsQbXh_aVyUk7N6kA-68">
          <mxGeometry x="-0.3" y="1" relative="1" as="geometry">
            <mxPoint as="offset" />
          </mxGeometry>
        </mxCell>
        <mxCell id="fMIKsQbXh_aVyUk7N6kA-23" value="本地缓存是否存在FA信息？" style="rhombus;whiteSpace=wrap;html=1;" vertex="1" parent="fMIKsQbXh_aVyUk7N6kA-3">
          <mxGeometry x="80" y="350" width="80" height="80" as="geometry" />
        </mxCell>
        <mxCell id="fMIKsQbXh_aVyUk7N6kA-57" value="获FA应用信息" style="rounded=1;whiteSpace=wrap;html=1;shadow=0;comic=0;labelBackgroundColor=none;strokeWidth=1;fontFamily=Verdana;fontSize=12;align=center;arcSize=50;" vertex="1" parent="fMIKsQbXh_aVyUk7N6kA-3">
          <mxGeometry x="70" y="590" width="100" height="30" as="geometry" />
        </mxCell>
        <mxCell id="fMIKsQbXh_aVyUk7N6kA-49" value="标签-应用映射缓存" style="shape=note;whiteSpace=wrap;html=1;rounded=0;shadow=0;comic=0;labelBackgroundColor=none;strokeWidth=1;fontFamily=Verdana;fontSize=12;align=center;size=20;" vertex="1" parent="fMIKsQbXh_aVyUk7N6kA-3">
          <mxGeometry x="170" y="440" width="110" height="40" as="geometry" />
        </mxCell>
        <mxCell id="fMIKsQbXh_aVyUk7N6kA-32" value="获FA应用信息" style="rounded=1;whiteSpace=wrap;html=1;shadow=0;comic=0;labelBackgroundColor=none;strokeWidth=1;fontFamily=Verdana;fontSize=12;align=center;arcSize=50;" vertex="1" parent="fMIKsQbXh_aVyUk7N6kA-3">
          <mxGeometry x="220" y="375" width="100" height="30" as="geometry" />
        </mxCell>
        <mxCell id="fMIKsQbXh_aVyUk7N6kA-48" value="根据标签信息更新缓存FA应用信息" style="rounded=1;whiteSpace=wrap;html=1;shadow=0;comic=0;labelBackgroundColor=none;strokeWidth=1;fontFamily=Verdana;fontSize=12;align=center;arcSize=50;" vertex="1" parent="fMIKsQbXh_aVyUk7N6kA-3">
          <mxGeometry x="220" y="515" width="100" height="30" as="geometry" />
        </mxCell>
        <mxCell id="fMIKsQbXh_aVyUk7N6kA-52" value="更新" style="edgeStyle=none;rounded=0;html=1;dashed=1;labelBackgroundColor=none;startArrow=none;startFill=0;startSize=5;endArrow=oval;endFill=0;endSize=5;jettySize=auto;orthogonalLoop=1;strokeWidth=1;fontFamily=Verdana;fontSize=12;exitX=0.5;exitY=1;exitDx=0;exitDy=0;exitPerimeter=0;entryX=0.5;entryY=0;entryDx=0;entryDy=0;" edge="1" parent="fMIKsQbXh_aVyUk7N6kA-3" source="fMIKsQbXh_aVyUk7N6kA-49" target="fMIKsQbXh_aVyUk7N6kA-48">
          <mxGeometry x="-0.5692" y="-16" relative="1" as="geometry">
            <mxPoint x="225" y="450" as="sourcePoint" />
            <mxPoint x="150" y="419.7881690140846" as="targetPoint" />
            <mxPoint as="offset" />
          </mxGeometry>
        </mxCell>
        <mxCell id="fMIKsQbXh_aVyUk7N6kA-63" value="" style="edgeStyle=none;rounded=0;html=1;dashed=1;labelBackgroundColor=none;startArrow=none;startFill=0;startSize=5;endArrow=oval;endFill=0;endSize=5;jettySize=auto;orthogonalLoop=1;strokeWidth=1;fontFamily=Verdana;fontSize=12;entryX=0.75;entryY=1;entryDx=0;entryDy=0;exitX=0.5;exitY=0;exitDx=0;exitDy=0;exitPerimeter=0;" edge="1" parent="fMIKsQbXh_aVyUk7N6kA-3" source="fMIKsQbXh_aVyUk7N6kA-49" target="fMIKsQbXh_aVyUk7N6kA-9">
          <mxGeometry x="0.525" y="4" relative="1" as="geometry">
            <mxPoint x="230" y="510" as="sourcePoint" />
            <mxPoint x="290" y="595" as="targetPoint" />
            <mxPoint x="-1" as="offset" />
          </mxGeometry>
        </mxCell>
        <mxCell id="fMIKsQbXh_aVyUk7N6kA-67" value="读取" style="edgeLabel;html=1;align=center;verticalAlign=middle;resizable=0;points=[];" vertex="1" connectable="0" parent="fMIKsQbXh_aVyUk7N6kA-63">
          <mxGeometry x="0.505" y="-1" relative="1" as="geometry">
            <mxPoint as="offset" />
          </mxGeometry>
        </mxCell>
        <mxCell id="fMIKsQbXh_aVyUk7N6kA-40" style="edgeStyle=orthogonalEdgeStyle;rounded=0;orthogonalLoop=1;jettySize=auto;html=1;exitX=1;exitY=0.5;exitDx=0;exitDy=0;" edge="1" parent="fMIKsQbXh_aVyUk7N6kA-2" source="fMIKsQbXh_aVyUk7N6kA-32" target="fMIKsQbXh_aVyUk7N6kA-15">
          <mxGeometry relative="1" as="geometry" />
        </mxCell>
        <mxCell id="fMIKsQbXh_aVyUk7N6kA-46" value="发送标签信息和OneHop包名信息" style="edgeLabel;html=1;align=center;verticalAlign=middle;resizable=0;points=[];" vertex="1" connectable="0" parent="fMIKsQbXh_aVyUk7N6kA-40">
          <mxGeometry x="-0.7959" y="-1" relative="1" as="geometry">
            <mxPoint x="16" y="-16" as="offset" />
          </mxGeometry>
        </mxCell>
        <mxCell id="fMIKsQbXh_aVyUk7N6kA-43" style="edgeStyle=orthogonalEdgeStyle;rounded=0;orthogonalLoop=1;jettySize=auto;html=1;exitX=1;exitY=0.5;exitDx=0;exitDy=0;" edge="1" parent="fMIKsQbXh_aVyUk7N6kA-2" source="fMIKsQbXh_aVyUk7N6kA-16" target="fMIKsQbXh_aVyUk7N6kA-19">
          <mxGeometry relative="1" as="geometry" />
        </mxCell>
        <mxCell id="fMIKsQbXh_aVyUk7N6kA-56" value="标签和包名信息" style="edgeLabel;html=1;align=center;verticalAlign=middle;resizable=0;points=[];" vertex="1" connectable="0" parent="fMIKsQbXh_aVyUk7N6kA-43">
          <mxGeometry x="-0.346" y="-3" relative="1" as="geometry">
            <mxPoint x="6" y="-13" as="offset" />
          </mxGeometry>
        </mxCell>
        <mxCell id="fMIKsQbXh_aVyUk7N6kA-45" style="edgeStyle=orthogonalEdgeStyle;rounded=0;orthogonalLoop=1;jettySize=auto;html=1;exitX=0;exitY=0.5;exitDx=0;exitDy=0;entryX=1;entryY=0.5;entryDx=0;entryDy=0;" edge="1" parent="fMIKsQbXh_aVyUk7N6kA-2" source="fMIKsQbXh_aVyUk7N6kA-20" target="fMIKsQbXh_aVyUk7N6kA-17">
          <mxGeometry relative="1" as="geometry" />
        </mxCell>
        <mxCell id="fMIKsQbXh_aVyUk7N6kA-53" style="edgeStyle=orthogonalEdgeStyle;rounded=0;orthogonalLoop=1;jettySize=auto;html=1;exitX=0;exitY=0.5;exitDx=0;exitDy=0;entryX=1;entryY=0.5;entryDx=0;entryDy=0;" edge="1" parent="fMIKsQbXh_aVyUk7N6kA-2" source="fMIKsQbXh_aVyUk7N6kA-17" target="fMIKsQbXh_aVyUk7N6kA-48">
          <mxGeometry relative="1" as="geometry" />
        </mxCell>
        <mxCell id="fMIKsQbXh_aVyUk7N6kA-10" value="HiLink应用" style="swimlane;html=1;startSize=20;" vertex="1" parent="fMIKsQbXh_aVyUk7N6kA-2">
          <mxGeometry x="380" y="20" width="290" height="1040" as="geometry" />
        </mxCell>
        <mxCell id="fMIKsQbXh_aVyUk7N6kA-11" value="智能家居设备FA" style="swimlane;html=1;startSize=20;" vertex="1" parent="fMIKsQbXh_aVyUk7N6kA-2">
          <mxGeometry x="670" y="20" width="250" height="1040" as="geometry" />
        </mxCell>
        <mxCell id="fMIKsQbXh_aVyUk7N6kA-12" value="设备NFC标签" style="swimlane;html=1;startSize=20;" vertex="1" parent="fMIKsQbXh_aVyUk7N6kA-2">
          <mxGeometry x="920" y="20" width="250" height="1040" as="geometry" />
        </mxCell>
        <mxCell id="fMIKsQbXh_aVyUk7N6kA-13" value="返回设备标签信息" style="rounded=1;whiteSpace=wrap;html=1;shadow=0;comic=0;labelBackgroundColor=none;strokeWidth=1;fontFamily=Verdana;fontSize=12;align=center;arcSize=50;" vertex="1" parent="fMIKsQbXh_aVyUk7N6kA-12">
          <mxGeometry x="80" y="181" width="100" height="30" as="geometry" />
        </mxCell>
        <mxCell id="fMIKsQbXh_aVyUk7N6kA-14" value="标签运营管理系统" style="swimlane;html=1;startSize=20;" vertex="1" parent="fMIKsQbXh_aVyUk7N6kA-2">
          <mxGeometry x="1170" y="20" width="250" height="1040" as="geometry" />
        </mxCell>
        <mxCell id="fMIKsQbXh_aVyUk7N6kA-42" style="edgeStyle=orthogonalEdgeStyle;rounded=0;orthogonalLoop=1;jettySize=auto;html=1;exitX=0.5;exitY=1;exitDx=0;exitDy=0;entryX=0.5;entryY=0;entryDx=0;entryDy=0;" edge="1" parent="fMIKsQbXh_aVyUk7N6kA-14" source="fMIKsQbXh_aVyUk7N6kA-15" target="fMIKsQbXh_aVyUk7N6kA-16">
          <mxGeometry relative="1" as="geometry" />
        </mxCell>
        <mxCell id="fMIKsQbXh_aVyUk7N6kA-15" value="解析标签信息，获取设备标识" style="rounded=1;whiteSpace=wrap;html=1;shadow=0;comic=0;labelBackgroundColor=none;strokeWidth=1;fontFamily=Verdana;fontSize=12;align=center;arcSize=50;" vertex="1" parent="fMIKsQbXh_aVyUk7N6kA-14">
          <mxGeometry x="71" y="375" width="100" height="30" as="geometry" />
        </mxCell>
        <mxCell id="fMIKsQbXh_aVyUk7N6kA-16" value="获取FA应用信息" style="rounded=1;whiteSpace=wrap;html=1;shadow=0;comic=0;labelBackgroundColor=none;strokeWidth=1;fontFamily=Verdana;fontSize=12;align=center;arcSize=50;" vertex="1" parent="fMIKsQbXh_aVyUk7N6kA-14">
          <mxGeometry x="71" y="445" width="100" height="30" as="geometry" />
        </mxCell>
        <mxCell id="fMIKsQbXh_aVyUk7N6kA-17" value="返回FA应用信息" style="rounded=1;whiteSpace=wrap;html=1;shadow=0;comic=0;labelBackgroundColor=none;strokeWidth=1;fontFamily=Verdana;fontSize=12;align=center;arcSize=50;" vertex="1" parent="fMIKsQbXh_aVyUk7N6kA-14">
          <mxGeometry x="71" y="515" width="100" height="30" as="geometry" />
        </mxCell>
        <mxCell id="fMIKsQbXh_aVyUk7N6kA-18" value="HAG服务管理系统" style="swimlane;html=1;startSize=20;" vertex="1" parent="fMIKsQbXh_aVyUk7N6kA-2">
          <mxGeometry x="1420" y="20" width="250" height="1040" as="geometry" />
        </mxCell>
        <mxCell id="fMIKsQbXh_aVyUk7N6kA-44" style="edgeStyle=orthogonalEdgeStyle;rounded=0;orthogonalLoop=1;jettySize=auto;html=1;exitX=0.5;exitY=1;exitDx=0;exitDy=0;entryX=0.5;entryY=0;entryDx=0;entryDy=0;" edge="1" parent="fMIKsQbXh_aVyUk7N6kA-18" source="fMIKsQbXh_aVyUk7N6kA-19" target="fMIKsQbXh_aVyUk7N6kA-20">
          <mxGeometry relative="1" as="geometry" />
        </mxCell>
        <mxCell id="fMIKsQbXh_aVyUk7N6kA-20" value="返回FA应用信息" style="rounded=1;whiteSpace=wrap;html=1;shadow=0;comic=0;labelBackgroundColor=none;strokeWidth=1;fontFamily=Verdana;fontSize=12;align=center;arcSize=50;" vertex="1" parent="fMIKsQbXh_aVyUk7N6kA-18">
          <mxGeometry x="52.5" y="515" width="145" height="30" as="geometry" />
        </mxCell>
        <mxCell id="fMIKsQbXh_aVyUk7N6kA-19" value="根据设备标识和OneHop产品包名获取FA应用信息" style="rounded=1;whiteSpace=wrap;html=1;shadow=0;comic=0;labelBackgroundColor=none;strokeWidth=1;fontFamily=Verdana;fontSize=12;align=center;arcSize=50;" vertex="1" parent="fMIKsQbXh_aVyUk7N6kA-18">
          <mxGeometry x="52.5" y="445" width="145" height="30" as="geometry" />
        </mxCell>
        <mxCell id="fMIKsQbXh_aVyUk7N6kA-21" value="应用市场云端系统" style="swimlane;html=1;startSize=20;" vertex="1" parent="fMIKsQbXh_aVyUk7N6kA-2">
          <mxGeometry x="1670" y="20" width="250" height="1040" as="geometry" />
        </mxCell>
        <mxCell id="fMIKsQbXh_aVyUk7N6kA-35" style="edgeStyle=orthogonalEdgeStyle;rounded=0;orthogonalLoop=1;jettySize=auto;html=1;exitX=1;exitY=0.5;exitDx=0;exitDy=0;" edge="1" parent="fMIKsQbXh_aVyUk7N6kA-2" source="fMIKsQbXh_aVyUk7N6kA-7" target="fMIKsQbXh_aVyUk7N6kA-13">
          <mxGeometry relative="1" as="geometry" />
        </mxCell>
        <mxCell id="fMIKsQbXh_aVyUk7N6kA-59" style="edgeStyle=orthogonalEdgeStyle;rounded=0;orthogonalLoop=1;jettySize=auto;html=1;exitX=0.5;exitY=1;exitDx=0;exitDy=0;entryX=1;entryY=0.5;entryDx=0;entryDy=0;" edge="1" parent="fMIKsQbXh_aVyUk7N6kA-2" source="fMIKsQbXh_aVyUk7N6kA-13" target="fMIKsQbXh_aVyUk7N6kA-58">
          <mxGeometry relative="1" as="geometry" />
        </mxCell>
      </root>
    </mxGraphModel>
  </diagram>
</mxfile>
